<svg xmlns="http://www.w3.org/2000/svg" viewBox="0 0 48 48" role="img" aria-label="Positive Path monogram">
  <circle cx="24" cy="24" r="24" fill="#1A2E26"/>
  <!-- First P - Sand/cream, bolder -->
  <path d="M8 8 H17 C23 8 26 12 26 17 C26 22 23 26 17 26 H15 V40 H8 Z M15 13 V21 H17 C20 21 21 19 21 17 C21 15 20 13 17 13 Z" fill="#F9F7F2" fill-rule="evenodd"/>
  <!-- Second P - Clay, bolder -->
  <path d="M22 8 H31 C37 8 40 12 40 17 C40 22 37 26 31 26 H29 V40 H22 Z M29 13 V21 H31 C34 21 35 19 35 17 C35 15 34 13 31 13 Z" fill="#B8956B" fill-rule="evenodd"/>
</svg>
