<svg xmlns="http://www.w3.org/2000/svg" viewBox="0 0 48 48" role="img" aria-label="Positive Path monogram">
  <!-- First P - Forest color, bolder strokes -->
  <path d="M4 4 H16 C24 4 28 9 28 16 C28 23 24 28 16 28 H14 V44 H4 Z M14 10 V22 H16 C20 22 22 19 22 16 C22 13 20 10 16 10 Z" fill="#1A2E26" fill-rule="evenodd"/>
  <!-- Second P - Clay color, offset and overlapping -->
  <path d="M20 4 H32 C40 4 44 9 44 16 C44 23 40 28 32 28 H30 V44 H20 Z M30 10 V22 H32 C36 22 38 19 38 16 C38 13 36 10 32 10 Z" fill="#B8956B" fill-rule="evenodd"/>
</svg>
